<?xml version="1.0" standalone="no"?>
<!DOCTYPE svg PUBLIC "-//W3C//DTD SVG 20010904//EN"
 "http://www.w3.org/TR/2001/REC-SVG-20010904/DTD/svg10.dtd">
<svg version="1.0" xmlns="http://www.w3.org/2000/svg"
 width="50.000000pt" height="50.000000pt" viewBox="0 0 50.000000 50.000000"
 preserveAspectRatio="xMidYMid meet">
<metadata>
Created by potrace 1.16, written by Peter Selinger 2001-2019
</metadata>
<g transform="translate(0.000000,50.000000) scale(0.100000,-0.100000)"
fill="#ffffff" stroke="none">
<path d="M145 481 c-92 -41 -145 -126 -145 -231 0 -148 102 -250 250 -250 148
0 250 102 250 250 0 105 -53 190 -145 231 -54 25 -156 25 -210 0z m200 -28
c142 -71 172 -259 58 -364 -45 -42 -91 -61 -152 -62 -124 -1 -222 97 -224 222
-1 164 173 275 318 204z"/>
</g>
</svg>
